<svg width="134" height="30" viewBox="0 0 134 30" fill="none" xmlns="http://www.w3.org/2000/svg">
<path d="M17.8281 21.8955C17.6621 24.1904 16.8125 25.9971 15.2793 27.3154C13.7559 28.6338 11.7441 29.293 9.24414 29.293C6.50977 29.293 4.35645 28.375 2.78418 26.5391C1.22168 24.6934 0.44043 22.1641 0.44043 18.9512V17.6475C0.44043 15.5967 0.801758 13.79 1.52441 12.2275C2.24707 10.665 3.27734 9.46875 4.61523 8.63867C5.96289 7.79883 7.52539 7.37891 9.30273 7.37891C11.7637 7.37891 13.7461 8.03809 15.25 9.35645C16.7539 10.6748 17.623 12.5254 17.8574 14.9082H13.4629C13.3555 13.5312 12.9697 12.5352 12.3057 11.9199C11.6514 11.2949 10.6504 10.9824 9.30273 10.9824C7.83789 10.9824 6.73926 11.5098 6.00684 12.5645C5.28418 13.6094 4.91309 15.2354 4.89355 17.4424V19.0537C4.89355 21.3584 5.24023 23.043 5.93359 24.1074C6.63672 25.1719 7.74023 25.7041 9.24414 25.7041C10.6016 25.7041 11.6123 25.3965 12.2764 24.7812C12.9502 24.1562 13.3359 23.1943 13.4336 21.8955H17.8281ZM53.0039 29H48.6094V7.67188H53.0039V29ZM74.4346 29H70.04L61.4854 14.9668V29H57.0908V7.67188H61.4854L70.0547 21.7344V7.67188H74.4346V29ZM90.5771 24.6055H82.8721L81.4072 29H76.7344L84.6738 7.67188H88.7461L96.7295 29H92.0566L90.5771 24.6055ZM84.0586 21.0459H89.3906L86.71 13.0625L84.0586 21.0459ZM115.274 26.3047C114.483 27.252 113.365 27.9893 111.92 28.5166C110.475 29.0342 108.873 29.293 107.115 29.293C105.27 29.293 103.648 28.8926 102.252 28.0918C100.865 27.2812 99.791 26.1094 99.0293 24.5762C98.2773 23.043 97.8916 21.2412 97.8721 19.1709V17.7207C97.8721 15.5918 98.2285 13.751 98.9414 12.1982C99.6641 10.6357 100.699 9.44434 102.047 8.62402C103.404 7.79395 104.991 7.37891 106.808 7.37891C109.337 7.37891 111.314 7.98437 112.74 9.19531C114.166 10.3965 115.011 12.1494 115.274 14.4541H110.997C110.802 13.2334 110.367 12.3398 109.693 11.7734C109.029 11.207 108.111 10.9238 106.939 10.9238C105.445 10.9238 104.308 11.4854 103.526 12.6084C102.745 13.7314 102.35 15.4014 102.34 17.6182V18.9805C102.34 21.2168 102.765 22.9062 103.614 24.0488C104.464 25.1914 105.709 25.7627 107.35 25.7627C109 25.7627 110.177 25.4111 110.88 24.708V21.0312H106.881V17.7939H115.274V26.3047ZM131.681 19.7568H123.243V25.4697H133.146V29H118.849V7.67188H133.116V11.2314H123.243V16.3145H131.681V19.7568Z" fill="black"/>
<path d="M44.708 15.4258C44.708 18.2253 44.2132 20.6797 43.2236 22.7891C42.234 24.8984 40.8148 26.526 38.9658 27.6719C37.1299 28.8177 35.0205 29.3906 32.6377 29.3906C30.2809 29.3906 28.1781 28.8242 26.3291 27.6914C24.4801 26.5586 23.0479 24.944 22.0322 22.8477C21.0166 20.7383 20.5023 18.3164 20.4893 15.582V14.1758C20.4893 11.3763 20.9906 8.91536 21.9932 6.79297C23.0088 4.65755 24.4346 3.02344 26.2705 1.89062C28.1195 0.744792 30.2288 0.171875 32.5986 0.171875C34.9684 0.171875 37.0713 0.744792 38.9072 1.89062C40.7562 3.02344 42.182 4.65755 43.1846 6.79297C44.2002 8.91536 44.708 11.3698 44.708 14.1562V15.4258ZM38.7705 14.1367C38.7705 11.1549 38.2367 8.88932 37.1689 7.33984C36.1012 5.79036 34.5778 5.01562 32.5986 5.01562C30.6325 5.01562 29.1156 5.78385 28.0479 7.32031C26.9801 8.84375 26.4398 11.0833 26.4268 14.0391V15.4258C26.4268 18.3294 26.9606 20.582 28.0283 22.1836C29.096 23.7852 30.6325 24.5859 32.6377 24.5859C34.6038 24.5859 36.1143 23.8177 37.1689 22.2812C38.2236 20.7318 38.7575 18.4792 38.7705 15.5234V14.1367Z" fill="#6C63FF"/>
</svg>
